<svg xmlns="http://www.w3.org/2000/svg" width="30.595" height="35.604" viewBox="0 0 30.595 35.604">
  <path id="award-icon" d="M5.428,30.754a.4.4,0,0,0-.473-.271h0L0,31.669,4.076,24.66l0,0a4.059,4.059,0,0,0,1.2.31,2.626,2.626,0,0,1,1.3.457,3.463,3.463,0,0,1,.73,1.3,4.1,4.1,0,0,0,.271.552s0,0,0,0c.018.031.037.061.057.091l.011.018.052.075c.007.011.014.018.021.03s.031.039.047.061L7.8,27.6c.014.018.029.033.044.051s.03.033.045.051l.007.007c.027.028.054.058.083.084,0,0,0,0,0,0s.028.024.042.039h0c.016.016.031.027.047.041a2.206,2.206,0,0,0,.462.3.056.056,0,0,1,.019.007c.045.025.093.05.147.076a2.5,2.5,0,0,0,1.81.079c.246-.068.471-.141.692-.2L6.87,35.6Zm13.958-2.608c.2.051.4.114.621.176l.016,0c.019,0,.037.011.056.015a3.192,3.192,0,0,0,.87.132h.024l.094,0,.086-.007h.011c.075-.007.15-.018.227-.033H21.4c.038-.007.075-.015.113-.026l.015,0,.04-.011.025-.007.04-.011a.085.085,0,0,0,.025-.007.166.166,0,0,1,.038-.015l.032-.011.032-.011c.014-.008.027-.012.041-.019l.023-.011a.524.524,0,0,0,.066-.03,2.231,2.231,0,0,0,.375-.223,2.179,2.179,0,0,0,.206-.173,3.13,3.13,0,0,0,.7-1.1A2.916,2.916,0,0,1,24,25.436a1.58,1.58,0,0,1,.168-.117l.007,0,.078-.045.007,0a3.733,3.733,0,0,1,1.239-.323c.074-.013.15-.024.227-.039a3.064,3.064,0,0,0,.789-.243h0L30.6,31.668,25.64,30.482a.4.4,0,0,0-.473.271h0L23.725,35.6Zm-4.177.808a1.739,1.739,0,0,1-1.264-.617,3.666,3.666,0,0,0-1.678-1.042,3.692,3.692,0,0,0-1.97.191,1.756,1.756,0,0,1-1.388,0c-.024-.01-.031-.014-.02-.008h0c-.031-.014-.061-.032-.09-.047l-.021-.011c-.021-.015-.041-.026-.06-.037l-.032-.022c-.015-.011-.029-.018-.043-.03l-.027-.022-.042-.033-.025-.022-.038-.033c-.009-.008-.017-.019-.025-.026s-.023-.022-.033-.033-.017-.018-.026-.03L8.4,27.1l-.026-.033c-.008-.011-.016-.018-.023-.03L8.321,27a.118.118,0,0,0-.016-.026c-.01-.014-.02-.033-.03-.048L8.262,26.9c-.01-.018-.021-.036-.031-.055,0,0-.006-.011-.009-.015-.011-.02-.022-.039-.032-.061a.057.057,0,0,0-.007-.015c-.011-.022-.021-.045-.032-.067,0,0,0-.006,0-.007-.011-.024-.022-.047-.033-.073a.033.033,0,0,1,0-.011c-.014-.032-.028-.066-.042-.1s-.034-.082-.052-.126a0,0,0,0,1,0,0,.032.032,0,0,0,0-.011l-.089-.221a4.4,4.4,0,0,0-.4-.81c-.01-.016-.021-.031-.031-.046s-.025-.038-.039-.056-.039-.052-.059-.078l-.017-.022c-.025-.032-.051-.062-.079-.095,0,0,0,0,0,0s0,0,0,0a2.635,2.635,0,0,0-.334-.32A3.682,3.682,0,0,0,5.1,24.036a1.738,1.738,0,0,1-1.266-.612,1.708,1.708,0,0,1-.3-1.365,3.608,3.608,0,0,0-.225-1.951A3.648,3.648,0,0,0,1.93,18.7a1.6,1.6,0,0,1-.548-2.456,3.62,3.62,0,0,0,.65-1.855,3.613,3.613,0,0,0-.626-1.863,1.6,1.6,0,0,1,.58-2.449,3.65,3.65,0,0,0,1.4-1.392,3.6,3.6,0,0,0,.251-1.948,1.709,1.709,0,0,1,.32-1.361,1.739,1.739,0,0,1,1.274-.6,3.68,3.68,0,0,0,1.867-.652A3.631,3.631,0,0,0,8.172,2.482a1.722,1.722,0,0,1,.883-1.088,1.745,1.745,0,0,1,1.408.011,3.692,3.692,0,0,0,1.968.216A3.666,3.666,0,0,0,14.123.6,1.737,1.737,0,0,1,15.395,0v0a1.738,1.738,0,0,1,1.264.616,3.668,3.668,0,0,0,1.678,1.041,3.692,3.692,0,0,0,1.97-.191,1.746,1.746,0,0,1,1.408.007,1.722,1.722,0,0,1,.869,1.1,3.629,3.629,0,0,0,1.056,1.661,3.681,3.681,0,0,0,1.858.676,1.739,1.739,0,0,1,1.266.612,1.708,1.708,0,0,1,.3,1.365,3.605,3.605,0,0,0,.226,1.951,3.649,3.649,0,0,0,1.379,1.409,1.6,1.6,0,0,1,.549,2.456,3.621,3.621,0,0,0-.65,1.855,3.613,3.613,0,0,0,.626,1.863,1.6,1.6,0,0,1-.58,2.449,3.648,3.648,0,0,0-1.4,1.391,3.607,3.607,0,0,0-.251,1.948,1.709,1.709,0,0,1-.32,1.361,1.6,1.6,0,0,1-.2.21l-.035.026v0a2.5,2.5,0,0,1-1.22.39c-.07.007-.142.022-.215.033l-.176.033-.019,0c-.029.007-.058.011-.087.018l-.01,0a3.532,3.532,0,0,0-.415.119h0l-.088.033-.029.011-.077.033c-.013.007-.025.011-.039.018l-.071.033a.3.3,0,0,1-.048.026c-.026.013-.053.027-.079.042h0c-.035.019-.069.04-.1.062l-.007,0c-.033.021-.066.044-.1.066l-.014.011c-.033.023-.065.047-.1.073a3.631,3.631,0,0,0-1.078,1.647c-.04.094-.078.183-.116.266-.013.028-.025.056-.039.082a1.437,1.437,0,0,1-.728.74.122.122,0,0,1-.032.015.333.333,0,0,1-.056.026.158.158,0,0,1-.036.015c-.017.008-.034.012-.051.019l-.036.011c-.017,0-.034.011-.052.015l-.032.007-.052.011a.243.243,0,0,1-.033.007l-.049.007-.034,0-.045,0-.037,0h-.088A2.461,2.461,0,0,1,20.3,27.6c-.032-.011-.064-.018-.1-.03a4.892,4.892,0,0,0-1.457-.3h-.124a2.7,2.7,0,0,0-.451.058,3.665,3.665,0,0,0-1.691,1.02,1.744,1.744,0,0,1-1.258.6Zm.091-25.5a11.017,11.017,0,1,0-.049,22.035h.064A11.018,11.018,0,1,0,15.3,3.456h0ZM8.889,27.481h0Zm.392-5.871.849-4.906L6.54,13.23a1.078,1.078,0,0,1,.6-1.841l4.963-.718,2.218-4.465a1.091,1.091,0,0,1,1.95,0l2.218,4.465,4.963.718a1.078,1.078,0,0,1,.6,1.841L20.464,16.7l.849,4.906a1.086,1.086,0,0,1-1.576,1.136L15.3,20.429l-4.44,2.317A1.083,1.083,0,0,1,9.282,21.61Z" transform="translate(0 0)" fill="#ffa652"/>
</svg>
