<svg xmlns="http://www.w3.org/2000/svg" width="13.563" height="15.5" viewBox="0 0 13.563 15.5">
  <path id="ci-1" d="M0,14.047A1.453,1.453,0,0,0,1.453,15.5H12.109a1.453,1.453,0,0,0,1.453-1.453V5.813H0ZM9.688,8.113a.364.364,0,0,1,.363-.363h1.211a.364.364,0,0,1,.363.363V9.324a.364.364,0,0,1-.363.363H10.051a.364.364,0,0,1-.363-.363Zm0,3.875a.364.364,0,0,1,.363-.363h1.211a.364.364,0,0,1,.363.363V13.2a.364.364,0,0,1-.363.363H10.051a.364.364,0,0,1-.363-.363ZM5.813,8.113a.364.364,0,0,1,.363-.363H7.387a.364.364,0,0,1,.363.363V9.324a.364.364,0,0,1-.363.363H6.176a.364.364,0,0,1-.363-.363Zm0,3.875a.364.364,0,0,1,.363-.363H7.387a.364.364,0,0,1,.363.363V13.2a.364.364,0,0,1-.363.363H6.176a.364.364,0,0,1-.363-.363ZM1.938,8.113A.364.364,0,0,1,2.3,7.75H3.512a.364.364,0,0,1,.363.363V9.324a.364.364,0,0,1-.363.363H2.3a.364.364,0,0,1-.363-.363Zm0,3.875a.364.364,0,0,1,.363-.363H3.512a.364.364,0,0,1,.363.363V13.2a.364.364,0,0,1-.363.363H2.3a.364.364,0,0,1-.363-.363ZM12.109,1.938H10.656V.484A.486.486,0,0,0,10.172,0H9.2a.486.486,0,0,0-.484.484V1.938H4.844V.484A.486.486,0,0,0,4.359,0H3.391a.486.486,0,0,0-.484.484V1.938H1.453A1.453,1.453,0,0,0,0,3.391V4.844H13.563V3.391A1.453,1.453,0,0,0,12.109,1.938Z" fill="#ffa652"/>
</svg>
