<svg xmlns="http://www.w3.org/2000/svg" width="48" height="48" viewBox="0 0 48 48">
  <g id="hi-1" transform="translate(-545 -1007)">
    <circle id="Ellipse_1" data-name="Ellipse 1" cx="24" cy="24" r="24" transform="translate(545 1007)"/>
    <path id="Icon_simple-clockify" data-name="Icon simple-clockify" d="M15.082,8.013l5.283-5.357,1.513,1.532L16.594,9.546,15.081,8.013Zm-2.14,5.475a1.857,1.857,0,0,1-1.325-.561,1.931,1.931,0,0,1-.546-1.346,1.872,1.872,0,1,1,3.743,0,1.931,1.931,0,0,1-.547,1.346,1.859,1.859,0,0,1-1.325.561Zm8.96,5.533-1.512,1.534L15.106,15.2l1.514-1.532Zm-8.9.8a7.889,7.889,0,0,0,3.009-.6l2.58,2.618A11.312,11.312,0,0,1,13,23.318,11.579,11.579,0,0,1,1.5,11.659,11.58,11.58,0,0,1,13,0a11.313,11.313,0,0,1,5.541,1.444L16,4.018a7.9,7.9,0,0,0-3-.6,8.127,8.127,0,0,0-8.051,8.2A8.127,8.127,0,0,0,13,19.823Z" transform="translate(557.299 1018.841)" fill="#fff"/>
  </g>
</svg>
