<svg xmlns="http://www.w3.org/2000/svg" width="46.384" height="60.953" viewBox="0 0 46.384 60.953">
  <g id="i-2" transform="translate(-327.794 -241.761)">
    <path id="Path_71" data-name="Path 71" d="M420.928,400V387.325a8.6,8.6,0,0,0,5.857-3.089c3.6-4.248,2.51-11.07,2.381-11.842a2.323,2.323,0,1,0-4.569.837c.257,1.352.515,5.793-1.352,8.045a4.652,4.652,0,0,1-3.862,1.48H412.24c-7.208,0-12.293-5.02-12.293-5.02a2.394,2.394,0,0,0-3.283-.064,2.332,2.332,0,0,0-.064,3.282,23.763,23.763,0,0,0,14.223,6.372V399.94l-3.6,5.406a7.144,7.144,0,0,0-1.158,4.827l.837,7.916a2.669,2.669,0,0,0,2.7,2.381h.322a2.64,2.64,0,0,0,2.381-2.961l-.837-7.916a1.852,1.852,0,0,1,.322-1.287l4.183-6.372,11.456,17.313a2.7,2.7,0,0,0,2.253,1.223,2.506,2.506,0,0,0,1.48-.45,2.7,2.7,0,0,0,.772-3.733Z" transform="translate(-62.357 -117.758)" fill="#ffa652"/>
    <path id="Path_72" data-name="Path 72" d="M595.285,290.174l7.595,1.866a.562.562,0,0,0,.708-.708l-1.931-8.431a.6.6,0,0,0-1.03-.257l-5.664,6.565A.64.64,0,0,0,595.285,290.174Z" transform="translate(-244.309 -37.212)" fill="#ffa652"/>
    <path id="Path_73" data-name="Path 73" d="M484.17,382.064a1.86,1.86,0,0,0,1.223,2.317l5.6,1.8a5.573,5.573,0,0,0,11.07-1.158,3.754,3.754,0,0,0-.386-1.673,1.1,1.1,0,0,1-.45-.064l-7.595-1.866a1.546,1.546,0,0,1-.772-.45,5.64,5.64,0,0,0-2,3.668l-5.085-1.609a.367.367,0,0,1,.193-.708.712.712,0,1,0,.45-1.351,1.7,1.7,0,0,0-2.252,1.094Z" transform="translate(-142.977 -127.235)" fill="#ffa652"/>
    <path id="Path_74" data-name="Path 74" d="M825.325,408.942l-.965-.386a1.023,1.023,0,0,1-.579-.579l-.386-.965a.182.182,0,0,0-.322,0l-.386.965a1.023,1.023,0,0,1-.579.579l-.965.386a.182.182,0,0,0,0,.322l.965.386a1.023,1.023,0,0,1,.579.579l.386.965a.182.182,0,0,0,.322,0l.386-.965a1.023,1.023,0,0,1,.579-.579l.965-.386A.182.182,0,0,0,825.325,408.942Z" transform="translate(-451.244 -151.088)" fill="#ffa652"/>
    <path id="Path_75" data-name="Path 75" d="M826.322,251a.777.777,0,0,1,.45.45l.257.708a.134.134,0,0,0,.258,0l.322-.708a.777.777,0,0,1,.45-.45l.708-.257a.134.134,0,0,0,0-.257l-.708-.257a.777.777,0,0,1-.45-.45l-.258-.708a.134.134,0,0,0-.257,0l-.258.708a.777.777,0,0,1-.45.45l-.708.257a.134.134,0,0,0,0,.257Z" transform="translate(-455.394 -6.599)" fill="#ffa652"/>
    <path id="Path_76" data-name="Path 76" d="M331.446,337.594a1.263,1.263,0,0,1-.579-.579l-.322-.9c-.064-.193-.322-.193-.322-.065l-.322.9a1.262,1.262,0,0,1-.579.579l-.9.322a.182.182,0,0,0,0,.322l.9.322a1.262,1.262,0,0,1,.579.579l.322.9a.182.182,0,0,0,.322,0l.322-.836a1.263,1.263,0,0,1,.579-.579l.9-.322a.182.182,0,0,0,0-.322Z" transform="translate(-0.486 -86.177)" fill="#ffa652"/>
    <path id="Path_77" data-name="Path 77" d="M524.222,306.359c.257.064.386.258.515.515l.322.772a.134.134,0,0,0,.257,0l.322-.772c.064-.257.257-.386.515-.515l.772-.322a.134.134,0,0,0,0-.257l-.772-.322c-.257-.064-.386-.257-.515-.515l-.386-.708a.134.134,0,0,0-.257,0l-.322.772c-.064.258-.258.386-.515.515l-.772.322a.134.134,0,0,0,0,.257Z" transform="translate(-178.845 -57.066)" fill="#ffa652"/>
    <path id="Path_78" data-name="Path 78" d="M579.65,248.588a.289.289,0,0,0,.45-.257l-.064-1.931a.3.3,0,0,0-.386-.257l-1.609.9c-.193.129-.193.386,0,.45Z" transform="translate(-228.802 -3.993)" fill="#ffa652"/>
    <path id="Path_79" data-name="Path 79" d="M330.9,245.27l1.866.45c.193.064.386-.129.322-.386l-.644-1.866a.285.285,0,0,0-.45-.129l-1.287,1.352C330.638,245.012,330.7,245.27,330.9,245.27Z" transform="translate(-2.639 -1.383)" fill="#ffa652"/>
    <path id="Path_80" data-name="Path 80" d="M329.93,444.7l-1.8-.515a.258.258,0,0,0-.322.322l.386,1.931c.064.193.322.322.45.129l1.352-1.352a.3.3,0,0,0-.065-.515Z" transform="translate(0 -185.176)" fill="#ffa652"/>
    <path id="Path_81" data-name="Path 81" d="M416.7,300.339a.22.22,0,0,0,.386.064l1.03-1.287c.129-.129,0-.322-.129-.386l-1.545-.257c-.193,0-.322.129-.258.322Z" transform="translate(-80.847 -51.882)" fill="#ffa652"/>
    <path id="Path_82" data-name="Path 82" d="M831.49,329.647l-1.673-.193c-.193,0-.322.129-.258.322l.644,1.609a.272.272,0,0,0,.45.064l1.03-1.416c.129-.129,0-.322-.193-.386Z" transform="translate(-459.018 -80.225)" fill="#ffa652"/>
    <path id="Path_83" data-name="Path 83" d="M707.877,243.887l1.673-.45c.193-.064.258-.257.129-.386l-1.158-1.223a.224.224,0,0,0-.386.129l-.515,1.673c-.128.129.065.257.257.257Z" transform="translate(-347.44)" fill="#ffa652"/>
    <path id="Path_84" data-name="Path 84" d="M476.746,246.666a1.094,1.094,0,1,1-1.094-1.094,1.094,1.094,0,0,1,1.094,1.094" transform="translate(-134.265 -3.487)" fill="#ffa652"/>
    <path id="Path_85" data-name="Path 85" d="M743.512,302.59a1.094,1.094,0,1,1-1.094-1.094,1.094,1.094,0,0,1,1.094,1.094" transform="translate(-378.312 -54.648)" fill="#ffa652"/>
    <path id="Path_86" data-name="Path 86" d="M405.7,387.226a1.094,1.094,0,1,1-1.094-1.094,1.094,1.094,0,0,1,1.094,1.094" transform="translate(-69.272 -132.076)" fill="#ffa652"/>
  </g>
</svg>
