<svg xmlns="http://www.w3.org/2000/svg" width="41.633" height="49.241" viewBox="0 0 41.633 49.241">
  <g id="i-3" transform="translate(-21.764 -14.758)">
    <path id="Path_87" data-name="Path 87" d="M60.147,34.985l-7.036-3.148c.03-.3.046-.6.046-.9a8.9,8.9,0,0,0-.553-3.07,4.378,4.378,0,0,0,1.342-.3,1.382,1.382,0,0,0-.551-2.648h-.241l.28-.193a1.422,1.422,0,0,0-1.211-2.535,11.557,11.557,0,0,1-4.173.681,8.93,8.93,0,0,0-2.947-.824l-.01,0h0c-.287-.029-.578-.046-.873-.046a8.886,8.886,0,0,0-3.749.833c-.164.076-.33.15-.489.235l-.028.014c-.193.105-.378.223-.562.341a8.977,8.977,0,0,0-2.6,2.547H33.3v-1.44a1.042,1.042,0,0,0-1.042-1.042h-.4a1.042,1.042,0,0,0-1.042,1.042v1.44h-.992a.993.993,0,0,0-.993.993v1.3A3.97,3.97,0,0,0,26.21,29.3l-.163.148a3.971,3.971,0,0,0-1.183,1.977l-.8,3.213.007,0-2.1,7.151A4.941,4.941,0,0,0,24.8,47.743l7.314,3.049s.3,3.562,2.033,5.292l-.3,10.54a.993.993,0,0,0,.992,1.021h8.879V44.152c-2.155-.111-3.92-1.252-4.383-2.759H29.685a.993.993,0,0,1-.977-1.168l.606-3.374-.007,0,.071-.065a.982.982,0,0,0,.447.111h7.749a8.909,8.909,0,0,0,12.833.482l4.223,2.506a30.372,30.372,0,0,1-5.783,1.286c-.333,1.542-2.013,2.752-4.13,2.961V67.645h9.334a.993.993,0,0,0,.993-.993v-12.2a9.929,9.929,0,0,1,3.2-7.3l3.379-3.113A5.5,5.5,0,0,0,63.4,39.936h0A5.5,5.5,0,0,0,60.147,34.985ZM36.774,48.311h2.482a.5.5,0,1,1,0,.993H36.774a.5.5,0,1,1,0-.993Zm7.446-9.432a7.9,7.9,0,0,1-5.236-1.986h4.739a.993.993,0,0,0,.993-.993v-.126c.322-.011.625-.032.868-.053q.141-.012.282-.012a3.164,3.164,0,0,1,.872.121l2.06.591h0l.712.423A7.9,7.9,0,0,1,44.22,38.879ZM30.336,35.9l.129-.119a4.837,4.837,0,0,0,1.562-3.559.993.993,0,0,1,.316-.726l.346-.322a1.679,1.679,0,0,0-1.145-2.907H29.824v-1.3h13.9v2.584l-2.976.05A1.611,1.611,0,0,0,39.2,31.563h0a5.7,5.7,0,0,0,3.44,4.013,3.6,3.6,0,0,0,1.081.191V35.9H30.336Zm-3.459-5.867a2.97,2.97,0,0,1,1.953-.769c.016,0,.032,0,.049,0h2.664a.686.686,0,0,1,.468,1.188l-.345.322a1.992,1.992,0,0,0-.632,1.453,3.853,3.853,0,0,1-1.21,2.8c-.011.01-.02.022-.031.032l-.465.428-.224.206-.273-.115-3.6-1.519.6-2.388a2.969,2.969,0,0,1,.888-1.483ZM52.14,31.4l-1.531-.685v0l-3.832-2.3a7.717,7.717,0,0,0,2.71-3.413,7.917,7.917,0,0,1,2.677,5.93C52.163,31.093,52.149,31.247,52.14,31.4ZM44.22,34.79c-.192,0-.357-.006-.5-.016a2.438,2.438,0,0,1-.717-.122,4.64,4.64,0,0,1-2.7-2.861c-.049-.147-.1-.294-.13-.447a.618.618,0,0,1,.592-.753l.649-.011,2.311-.039.172,0a1,1,0,0,0,.976-.993v-.869a4.355,4.355,0,0,1,.893.328c.12.058.244.11.359.179l3.43,2.059-1.383,3.964-1.158-.332a4.156,4.156,0,0,0-1.146-.16q-.184,0-.367.016c-.206.018-.484.037-.783.048-.151.006-.306.01-.463.01ZM47.7,59.232a.993.993,0,1,1,.993-.993A.993.993,0,0,1,47.7,59.232Zm0-4.964a.993.993,0,1,1,.993-.993A.993.993,0,0,1,47.7,54.268Zm0-4.964a.993.993,0,1,1,.993-.993A.993.993,0,0,1,47.7,49.3Z" transform="translate(0 -3.647)" fill="#ffa652"/>
    <path id="Path_88" data-name="Path 88" d="M50.874,40.111a2.44,2.44,0,0,0-2.249-3.1c-.048,0-.094-.014-.143-.014a2.462,2.462,0,0,0-.362.037l-.045,0a2.473,2.473,0,1,0,2.8,3.07Zm-2.01.8a1.471,1.471,0,0,1-.382.056c-.043,0-.084-.009-.126-.013a1.469,1.469,0,0,1-.554-.16,1.482,1.482,0,0,1,.2-2.721l.028-.009a1.468,1.468,0,0,1,.447-.076l.025,0a1.485,1.485,0,0,1,.357,2.92Z" transform="translate(-12.205 -11.201)" fill="#ffa652"/>
    <path id="Path_89" data-name="Path 89" d="M53.5,34.993h1.986a.5.5,0,1,0,0-.993H53.5a.5.5,0,1,0,0,.993Z" transform="translate(-15.73 -9.69)" fill="#ffa652"/>
    <path id="Path_90" data-name="Path 90" d="M28.682,24.361l2.118,1.09a.489.489,0,0,0,.227.055.5.5,0,0,0,.228-.938l-2.118-1.09a.5.5,0,1,0-.454.882Z" transform="translate(-3.348 -4.363)" fill="#ffa652"/>
    <path id="Path_91" data-name="Path 91" d="M34.92,20.239a.5.5,0,1,0,.753-.647l-1.552-1.807a.5.5,0,1,0-.753.647Z" transform="translate(-5.783 -1.438)" fill="#ffa652"/>
    <path id="Path_92" data-name="Path 92" d="M46.659,20.412a.5.5,0,0,0,.377-.173l1.552-1.807a.5.5,0,0,0-.753-.647l-1.552,1.807a.5.5,0,0,0,.376.82Z" transform="translate(-12.286 -1.438)" fill="#ffa652"/>
    <path id="Path_93" data-name="Path 93" d="M41.934,18.012a.5.5,0,0,0,.5-.5V15.254a.5.5,0,0,0-.993,0v2.261A.5.5,0,0,0,41.934,18.012Z" transform="translate(-9.907)" fill="#ffa652"/>
  </g>
</svg>
