<svg xmlns="http://www.w3.org/2000/svg" width="199.815" height="60.149" viewBox="0 0 199.815 60.149">
  <path id="logo-white" d="M9.515,9.4H4.622V7.612H1v-4.8L41.747-10,82.494,2.811v4.8H79.777V9.4H77.855V36.824h-6.24V15.1h-.08L64.1,36.824h-4.76L52.176,15.1H52.1v21.72H45.855V9.4H35.806l.367,29.921c-3.034.752-5.894,1.684-8.6,2.528L28.26,9.4H17.06l.424,36.577c-3.22,1.314-6.139,2.8-8.78,4.17Zm52.3,17.583h.08L68.137,9.4H55.612Zm88.979,9.62a5.3,5.3,0,0,1-2.2-1.94,7.605,7.605,0,0,1-1.04-2.92,23.928,23.928,0,0,1-.259-3.64V17.384h6V26.9q0,.84.06,1.74a5.485,5.485,0,0,0,.36,1.66,2.582,2.582,0,0,0,2.7,1.72,3.708,3.708,0,0,0,1.88-.42,2.869,2.869,0,0,0,1.1-1.12,4.594,4.594,0,0,0,.5-1.58,13.743,13.743,0,0,0,.12-1.84v-9.68h6v19.44h-5.76v-2.64h-.08a6.656,6.656,0,0,1-.82,1.12,5.4,5.4,0,0,1-1.22,1,7.072,7.072,0,0,1-1.64.72,6.824,6.824,0,0,1-2,.28A8.408,8.408,0,0,1,150.795,36.6Zm-20.479-.021a10.151,10.151,0,0,1-3.44-2.059,9.67,9.67,0,0,1-2.3-3.22,10.189,10.189,0,0,1-.84-4.2,10.192,10.192,0,0,1,.84-4.2,9.657,9.657,0,0,1,2.3-3.219,10.139,10.139,0,0,1,3.44-2.06,12.238,12.238,0,0,1,4.22-.72,9.593,9.593,0,0,1,3.78.72,7.864,7.864,0,0,1,2.88,2.06,9.377,9.377,0,0,1,1.82,3.219,12.986,12.986,0,0,1,.64,4.2v1.88h-13.92a4.748,4.748,0,0,0,1.561,2.74,4.411,4.411,0,0,0,2.96,1.021,4.5,4.5,0,0,0,2.5-.661,6.707,6.707,0,0,0,1.78-1.7l4.2,3.08A9.567,9.567,0,0,1,139.1,36.3a10.9,10.9,0,0,1-4.559,1A12.238,12.238,0,0,1,130.316,36.584Zm1.9-15.04a4.414,4.414,0,0,0-1.3.82,3.6,3.6,0,0,0-.841,1.16,3.831,3.831,0,0,0-.34,1.381h7.92a3.47,3.47,0,0,0-1-2.6,3.555,3.555,0,0,0-2.679-1.08A4.508,4.508,0,0,0,132.215,21.544Zm-24.04,15.18a7.7,7.7,0,0,1-3.52-2.06l3.64-4.04a6.026,6.026,0,0,0,1.86,1.58,5.012,5.012,0,0,0,2.38.54,5.541,5.541,0,0,0,1.88-.3,1.107,1.107,0,0,0,.841-1.1,1.218,1.218,0,0,0-.741-1.139,8.087,8.087,0,0,0-1.88-.641Q111.5,29.3,110.2,29a10.059,10.059,0,0,1-2.44-.9,5.1,5.1,0,0,1-1.88-1.7,5.187,5.187,0,0,1-.74-2.939,5.923,5.923,0,0,1,.7-2.96,6.148,6.148,0,0,1,1.84-2.04,7.988,7.988,0,0,1,2.62-1.18,12.044,12.044,0,0,1,3-.38,14.068,14.068,0,0,1,3.88.56,7.2,7.2,0,0,1,3.32,2l-3.68,3.641a4.249,4.249,0,0,0-3.48-1.641,3.278,3.278,0,0,0-1.48.36,1.272,1.272,0,0,0-.72,1.24,1.115,1.115,0,0,0,.74,1.06,9.789,9.789,0,0,0,1.88.6q1.139.259,2.44.56a9.156,9.156,0,0,1,2.44.94,5.455,5.455,0,0,1,1.88,1.741,5.189,5.189,0,0,1,.74,2.939,5.449,5.449,0,0,1-.82,3.1,6.292,6.292,0,0,1-2.1,1.96,9.03,9.03,0,0,1-2.88,1.04,17.138,17.138,0,0,1-3.16.3A15.275,15.275,0,0,1,108.175,36.725Zm-21.82-.12a5.3,5.3,0,0,1-2.2-1.94,7.605,7.605,0,0,1-1.04-2.92,23.928,23.928,0,0,1-.259-3.64V17.384h6V26.9q0,.84.06,1.74a5.485,5.485,0,0,0,.36,1.66,2.582,2.582,0,0,0,2.7,1.72,3.708,3.708,0,0,0,1.88-.42,2.869,2.869,0,0,0,1.1-1.12,4.594,4.594,0,0,0,.5-1.58,13.744,13.744,0,0,0,.12-1.84v-9.68h6v19.44h-5.76v-2.64h-.08a6.655,6.655,0,0,1-.82,1.12,5.4,5.4,0,0,1-1.22,1,7.072,7.072,0,0,1-1.64.72,6.824,6.824,0,0,1-2,.28A8.408,8.408,0,0,1,86.355,36.6Zm108.461.22V25.5a4.511,4.511,0,0,0-.581-2.34,2.193,2.193,0,0,0-2.06-.98,3.964,3.964,0,0,0-1.74.34,2.868,2.868,0,0,0-1.12.941,3.9,3.9,0,0,0-.6,1.4,7.6,7.6,0,0,0-.18,1.68v10.28h-6V26.545q0-.52-.04-1.28a5.142,5.142,0,0,0-.28-1.44,2.753,2.753,0,0,0-.78-1.16,2.307,2.307,0,0,0-1.58-.481,3.707,3.707,0,0,0-1.88.42,2.865,2.865,0,0,0-1.1,1.121,4.583,4.583,0,0,0-.5,1.58,13.6,13.6,0,0,0-.121,1.84v9.68h-6V17.384h5.76v2.64h.08a4.869,4.869,0,0,1,.8-1.12,5.842,5.842,0,0,1,1.24-1,7.089,7.089,0,0,1,1.64-.72,6.86,6.86,0,0,1,2-.28,7.6,7.6,0,0,1,3.62.84,5.316,5.316,0,0,1,2.38,2.64A6.49,6.49,0,0,1,190.3,17.7a7.573,7.573,0,0,1,3.641-.8,7.42,7.42,0,0,1,3.3.66,5.4,5.4,0,0,1,2.12,1.8,7.576,7.576,0,0,1,1.12,2.68,15.281,15.281,0,0,1,.34,3.3v11.48Z" transform="translate(-1 10)" fill="#fff"/>
</svg>
