<svg xmlns="http://www.w3.org/2000/svg" width="244.106" height="73.509" viewBox="0 0 244.106 73.509">
  <path id="logo-main" d="M11.093,13.272h-5.8V11.126H1V5.367L49.3-10l48.3,15.367v5.759H94.372v2.147H93.48V47.186H85.837V20.579h-.1L76.624,47.186H70.793l-8.77-26.607h-.1V47.186H54.28V13.272H42.254l.435,35.891c-3.6.9-6.985,2.02-10.187,3.032l.808-38.922H20.036l.5,43.875c-3.818,1.575-7.277,3.357-10.407,5Zm62.739,21.86h.1l7.759-21.86H66.119Zm109,11.785a6.5,6.5,0,0,1-2.695-2.377,9.313,9.313,0,0,1-1.274-3.577,29.209,29.209,0,0,1-.319-4.459V23.372h7.35V35.034q0,1.029.074,2.131a6.722,6.722,0,0,0,.441,2.034,3.163,3.163,0,0,0,3.307,2.107,4.542,4.542,0,0,0,2.3-.515,3.509,3.509,0,0,0,1.347-1.372,5.6,5.6,0,0,0,.612-1.936,16.661,16.661,0,0,0,.148-2.254V23.372h7.349V47.186H194.42V43.952h-.1a8.157,8.157,0,0,1-1.005,1.372,6.578,6.578,0,0,1-1.494,1.225,8.7,8.7,0,0,1-2.009.882,8.388,8.388,0,0,1-2.451.343A10.292,10.292,0,0,1,182.831,46.917Zm-25.088-.025a12.426,12.426,0,0,1-4.214-2.524,11.836,11.836,0,0,1-2.818-3.944,12.481,12.481,0,0,1-1.029-5.145,12.481,12.481,0,0,1,1.029-5.145,11.827,11.827,0,0,1,2.818-3.944,12.426,12.426,0,0,1,4.214-2.524,14.992,14.992,0,0,1,5.17-.882,11.751,11.751,0,0,1,4.631.882,9.644,9.644,0,0,1,3.528,2.524,11.5,11.5,0,0,1,2.229,3.944,15.9,15.9,0,0,1,.784,5.145v2.3H157.033a5.816,5.816,0,0,0,1.912,3.356,5.4,5.4,0,0,0,3.626,1.25,5.518,5.518,0,0,0,3.062-.809,8.232,8.232,0,0,0,2.181-2.083l5.145,3.774a11.728,11.728,0,0,1-4.46,3.479,13.346,13.346,0,0,1-5.585,1.225A14.992,14.992,0,0,1,157.744,46.892Zm2.327-18.424a5.426,5.426,0,0,0-1.593,1,4.4,4.4,0,0,0-1.029,1.421,4.7,4.7,0,0,0-.417,1.691h9.7A4.251,4.251,0,0,0,165.51,29.4a4.356,4.356,0,0,0-3.283-1.323A5.523,5.523,0,0,0,160.071,28.468Zm-29.449,18.6a9.421,9.421,0,0,1-4.312-2.524l4.459-4.949a7.389,7.389,0,0,0,2.279,1.936,6.14,6.14,0,0,0,2.915.661,6.794,6.794,0,0,0,2.3-.368,1.355,1.355,0,0,0,1.029-1.347,1.492,1.492,0,0,0-.906-1.4,9.949,9.949,0,0,0-2.3-.784q-1.4-.319-2.989-.686a12.336,12.336,0,0,1-2.989-1.1,6.259,6.259,0,0,1-2.3-2.083,6.36,6.36,0,0,1-.906-3.6,7.263,7.263,0,0,1,.858-3.626,7.53,7.53,0,0,1,2.254-2.5,9.758,9.758,0,0,1,3.209-1.445,14.713,14.713,0,0,1,3.676-.465,17.247,17.247,0,0,1,4.753.686,8.813,8.813,0,0,1,4.067,2.45l-4.508,4.46a5.2,5.2,0,0,0-4.263-2.01,4.014,4.014,0,0,0-1.813.441,1.559,1.559,0,0,0-.882,1.519,1.366,1.366,0,0,0,.906,1.3,12.005,12.005,0,0,0,2.3.735q1.4.317,2.989.686a11.217,11.217,0,0,1,2.989,1.151,6.694,6.694,0,0,1,2.3,2.132,6.36,6.36,0,0,1,.906,3.6,6.671,6.671,0,0,1-1,3.8,7.7,7.7,0,0,1-2.572,2.4,11.059,11.059,0,0,1-3.528,1.274,20.992,20.992,0,0,1-3.871.367A18.73,18.73,0,0,1,130.622,47.064Zm-26.73-.147A6.5,6.5,0,0,1,101.2,44.54a9.313,9.313,0,0,1-1.274-3.577A29.21,29.21,0,0,1,99.6,36.5V23.372h7.35V35.034q0,1.029.074,2.131a6.722,6.722,0,0,0,.441,2.034,3.163,3.163,0,0,0,3.308,2.107,4.542,4.542,0,0,0,2.3-.515,3.509,3.509,0,0,0,1.347-1.372,5.6,5.6,0,0,0,.612-1.936,16.661,16.661,0,0,0,.148-2.254V23.372h7.349V47.186h-7.056V43.952h-.1a8.158,8.158,0,0,1-1.005,1.372,6.578,6.578,0,0,1-1.494,1.225,8.7,8.7,0,0,1-2.009.882,8.388,8.388,0,0,1-2.451.343A10.292,10.292,0,0,1,103.892,46.917Zm132.863.269V33.319a5.53,5.53,0,0,0-.71-2.867,2.686,2.686,0,0,0-2.524-1.2,4.864,4.864,0,0,0-2.131.417,3.514,3.514,0,0,0-1.372,1.152,4.778,4.778,0,0,0-.734,1.714,9.315,9.315,0,0,0-.221,2.058V47.186h-7.35V34.593q0-.637-.049-1.568a6.274,6.274,0,0,0-.344-1.764,3.359,3.359,0,0,0-.955-1.421,2.826,2.826,0,0,0-1.936-.589,4.542,4.542,0,0,0-2.3.515,3.509,3.509,0,0,0-1.347,1.372,5.592,5.592,0,0,0-.612,1.936,16.651,16.651,0,0,0-.148,2.254V47.186h-7.349V23.372h7.056v3.234h.1a5.949,5.949,0,0,1,.98-1.372,7.136,7.136,0,0,1,1.519-1.225,8.644,8.644,0,0,1,2.009-.882,8.388,8.388,0,0,1,2.451-.343,9.3,9.3,0,0,1,4.434,1.029,6.517,6.517,0,0,1,2.915,3.234,7.94,7.94,0,0,1,3.087-3.282,9.279,9.279,0,0,1,4.46-.98,9.094,9.094,0,0,1,4.042.808,6.619,6.619,0,0,1,2.6,2.2,9.281,9.281,0,0,1,1.372,3.283,18.692,18.692,0,0,1,.417,4.042V47.186Z" transform="translate(-0.5 10.525)" fill="#ffa652" stroke="#000" stroke-width="1"/>
</svg>
