<svg id="mi-1" xmlns="http://www.w3.org/2000/svg" width="22.5" height="24.676" viewBox="0 0 22.5 24.676">
  <path id="Path_94" data-name="Path 94" d="M428.3,110.068a1.125,1.125,0,0,1-1.122-1.122V106.12a1.122,1.122,0,0,1,2.243,0v2.827A1.125,1.125,0,0,1,428.3,110.068Z" transform="translate(-410.984 -103.876)"/>
  <path id="Path_95" data-name="Path 95" d="M175.6,112.176a1.125,1.125,0,0,1-1.122-1.122V88.622A1.125,1.125,0,0,1,175.6,87.5h20.257a1.122,1.122,0,1,1,0,2.243H176.723v21.311A1.125,1.125,0,0,1,175.6,112.176Z" transform="translate(-174.48 -87.5)"/>
  <path id="Path_96" data-name="Path 96" d="M240.479,168.706H223.9l-1.122-1.122V150.222L223.9,149.1H240.49l1.122,1.122v17.363Zm-15.456-2.243h14.345v-15.12H225.023Z" transform="translate(-219.684 -145.152)"/>
  <path id="Path_97" data-name="Path 97" d="M270.272,93.69a1.125,1.125,0,0,1-1.122-1.122V88.62a1.122,1.122,0,1,1,2.243,0v3.948A1.125,1.125,0,0,1,270.272,93.69Z" transform="translate(-263.082 -87.498)"/>
  <path id="Path_98" data-name="Path 98" d="M302.587,237.133H293.12v-1.021l4.722-1.963,4.744,1.963Z" transform="translate(-285.516 -224.75)"/>
  <path id="Path_99" data-name="Path 99" d="M312.264,285.905h-.09a.675.675,0,0,1-.673-.673v-3.858a.675.675,0,0,1,.673-.673h.09a.675.675,0,0,1,.673.673v3.858A.675.675,0,0,1,312.264,285.905Z" transform="translate(-302.719 -268.318)"/>
  <path id="Path_100" data-name="Path 100" d="M356.544,285.905h-.09a.675.675,0,0,1-.673-.673v-3.858a.675.675,0,0,1,.673-.673h.09a.675.675,0,0,1,.673.673v3.858A.675.675,0,0,1,356.544,285.905Z" transform="translate(-344.161 -268.318)"/>
  <path id="Path_101" data-name="Path 101" d="M400.814,285.905h-.09a.675.675,0,0,1-.673-.673v-3.858a.675.675,0,0,1,.673-.673h.09a.675.675,0,0,1,.673.673v3.858A.668.668,0,0,1,400.814,285.905Z" transform="translate(-385.594 -268.318)"/>
  <path id="Path_102" data-name="Path 102" d="M301.35,348.134v-.09a.675.675,0,0,1,.673-.673h7.055a.675.675,0,0,1,.673.673v.09a.675.675,0,0,1-.673.673h-7.055A.675.675,0,0,1,301.35,348.134Z" transform="translate(-293.218 -330.715)"/>
</svg>
