<svg xmlns="http://www.w3.org/2000/svg" width="1915.647" height="838" viewBox="0 0 1915.647 838">
  <g id="museum-bg" transform="translate(-72.555 -158.639)" opacity="0.036">
    <path id="Path_103" data-name="Path 103" d="M416.921,350.05a7.638,7.638,0,0,0-7.66,7.66l.013,48.212a7.66,7.66,0,1,0,15.32,0V357.71a7.7,7.7,0,0,0-7.673-7.66Z" transform="translate(825.717 469.403)"/>
    <path id="Path_104" data-name="Path 104" d="M426.38,350.05a7.672,7.672,0,0,0-7.7,7.66l.013,48.212a7.68,7.68,0,1,0,15.361,0V357.71a7.684,7.684,0,0,0-7.673-7.66Z" transform="translate(848.813 469.403)"/>
    <path id="Path_105" data-name="Path 105" d="M435.8,350.05a7.672,7.672,0,0,0-7.7,7.66v48.212a7.68,7.68,0,1,0,15.36,0V357.71A7.7,7.7,0,0,0,435.8,350.05Z" transform="translate(871.914 469.403)"/>
    <path id="Path_106" data-name="Path 106" d="M294.6,350.05a7.638,7.638,0,0,0-7.66,7.66v48.212a7.66,7.66,0,1,0,15.32,0V357.71A7.672,7.672,0,0,0,294.6,350.05Z" transform="translate(525.747 469.403)"/>
    <path id="Path_107" data-name="Path 107" d="M285.181,350.05a7.638,7.638,0,0,0-7.66,7.66v48.212a7.66,7.66,0,1,0,15.32,0V357.71A7.663,7.663,0,0,0,285.181,350.05Z" transform="translate(502.646 469.403)"/>
    <path id="Path_108" data-name="Path 108" d="M275.751,350.05a7.638,7.638,0,0,0-7.66,7.66v48.212a7.66,7.66,0,1,0,15.32,0V357.71A7.689,7.689,0,0,0,275.751,350.05Z" transform="translate(479.521 469.403)"/>
    <path id="Path_109" data-name="Path 109" d="M1023.242,184.535a25.65,25.65,0,0,0-18.017,24.355,25.324,25.324,0,0,0,.485,4.76c-40.89,9.278-116.03,42.792-116.03,164.134v79.78L868.131,468.1a15.338,15.338,0,0,0-8.6,13.782l.041,48.1-48.481-33.836a15.356,15.356,0,0,0-17.6,0l-72.578,50.787a15.3,15.3,0,0,0-6.54,12.569v12.987H566.039V427.79a15.177,15.177,0,0,0-5.974-12.043c0-.04,0-.081-.04-.081l-69.209-184.9a22.164,22.164,0,0,0,1.591-7.93A22.484,22.484,0,0,0,477.6,201.755V166.3a7.68,7.68,0,0,0-15.36,0v35.455a22.458,22.458,0,0,0-14.848,21.078,21.743,21.743,0,0,0,1.065,6.567L378.681,415.678c-.04.081-.04.189-.081.27a15.153,15.153,0,0,0-5.745,11.854V572.53H266.724l-14.619-10.2V520.382c0-32.555-14.537-91.566-67.106-101.022a16.906,16.906,0,0,0,2.454-8.455,17.513,17.513,0,0,0-9.548-15.482V368.128a7.68,7.68,0,0,0-15.36,0v26.7a17.724,17.724,0,0,0-10.465,16.089,17.074,17.074,0,0,0,3.061,9.319c-23.681,5.7-66.754,26.2-66.754,100.145V568.19l-9.265,6.419c-4.113,2.859-6.567,8.28-6.567,13.3V981.266a15.358,15.358,0,0,0,15.333,15.374h1884.94a15.367,15.367,0,0,0,15.374-15.374V587.216a15.285,15.285,0,0,0-6.567-12.569l-12.879-9.022V520.383c0-32.555-14.537-91.566-67.107-101.022a16.852,16.852,0,0,0-7.093-23.951V368.115a7.68,7.68,0,0,0-15.361,0v26.7a17.658,17.658,0,0,0-10.464,16.089,17.369,17.369,0,0,0,3.021,9.318c-23.641,5.7-66.713,26.2-66.713,100.145V564.9l-11,7.633h-81.965v-146.7a15.26,15.26,0,0,0-5.583-11.732c-.081-.148-.041-.27-.121-.4l-69.1-184.538a21.93,21.93,0,0,0-13.783-27.376V166.328a7.68,7.68,0,0,0-15.361,0v35.456a22.446,22.446,0,0,0-14.807,21.078,23.255,23.255,0,0,0,.9,6.028l-69.14,184.686a15.278,15.278,0,0,0-6.19,12.272v146.7H1352.217V559.557a15.34,15.34,0,0,0-6.568-12.569L1273.461,496.2a15.237,15.237,0,0,0-17.437-.121l-50.977,34.7V482.972a15.439,15.439,0,0,0-8.523-13.782l-23.182-11.557V377.811c0-53.47-25.367-150.58-117.1-165.564a23.358,23.358,0,0,0,.351-3.331A25.565,25.565,0,0,0,1038.66,184.6m797.075,335.781c0-68.8,46.026-71.622,51.15-71.705,50.263,0,51.136,68.805,51.136,71.705V544.2l-42.667-29.83a15.291,15.291,0,0,0-17.558,0l-42.077,29.2ZM1613.519,265.016a6.429,6.429,0,0,0,2.266.486,7.062,7.062,0,0,0,2.144-.445L1661.987,382.8l-37.489-26.27a15.425,15.425,0,0,0-17.6,0l-37.423,26.095ZM920.428,377.8c0-134.613,106.563-136.989,111.055-136.989,109.422,0,111.082,131.4,111.082,136.989v64.528l-103.083-51.274a15.476,15.476,0,0,0-13.553-.081L958.97,423.659c-1.928.9-3.8,1.821-5.583,2.765l-32.959,16.129ZM469.381,261.091,515.611,384.5l-37.154-25.987a15.223,15.223,0,0,0-17.558,0l-37.841,26.311ZM119.107,520.379c0-68.805,46.027-71.622,51.136-71.705,50.263,0,51.15,68.805,51.15,71.705V540.89l-37.948-26.5a15.36,15.36,0,0,0-17.558,0L119.1,546.864ZM1957.475,965.868H1189.641V858.59s0-15.212-15.171-15.212l-47.618-.013s-15.212,0-15.212,15.212V965.854h-25.272V858.576s0-15.212-15.252-15.212H990.687s-15.212,0-15.212,15.212V965.854H953.008V858.576s0-15.212-15.212-15.212h-47.59s-15.212,0-15.212,15.212V965.854l-771.735.013V595.26l71.353-49.572,74.536,52.027a15.341,15.341,0,0,0,11.773,5.516h127.25A15.358,15.358,0,0,0,403.544,587.9V435.846l66.081-46.026,65.688,46V587.911a15.341,15.341,0,0,0,15.374,15.333H729.707a15.332,15.332,0,0,0,15.333-15.333V567.547l57.247-40.054,63.854,44.639a15.376,15.376,0,0,0,24.166-12.609l-.081-68.049,142.354-69.558,141.708,70.531.04,67.362a15.321,15.321,0,0,0,23.978,12.69l66.161-45.084,56.977,40.092V587.9a15.341,15.341,0,0,0,15.374,15.333h197.377a15.358,15.358,0,0,0,15.374-15.333V433.837l66.081-46.027,65.664,46v154.1a15.341,15.341,0,0,0,15.374,15.333h103.125a14.851,14.851,0,0,0,10.937-4.909l75.748-52.648,70.987,49.534-.04,370.643Z" transform="translate(0)"/>
    <path id="Path_110" data-name="Path 110" d="M414.705,250.34c-70,0-90.879,66.834-90.879,117.055H505.64C505.626,317.174,484.535,250.34,414.705,250.34Z" transform="translate(616.201 224.881)"/>
    <path id="Path_111" data-name="Path 111" d="M300.76,373.161h19.217c5.138,0,5.138-5.138,5.138-5.138V322.335c0-33.269-19.743-42.857-19.743-42.857a10.87,10.87,0,0,0-9.143.121s-19.837,10.37-19.837,42.736v45.688c0,5.138,5.138,5.138,5.138,5.138Z" transform="translate(499.876 293.941)"/>
    <path id="Path_112" data-name="Path 112" d="M438.806,279.484a10.947,10.947,0,0,0-9.184.121s-19.81,10.37-19.81,42.736V368.03c0,5.138,5.138,5.138,5.138,5.138h38.476c5.1,0,5.1-5.138,5.1-5.138l.013-45.688c-.027-33.269-19.729-42.857-19.729-42.857Z" transform="translate(827.066 293.956)"/>
    <path id="Path_113" data-name="Path 113" d="M429.737,310.31H349.308s-15.212,0-15.212,15.212V437.4s0,15.252,15.212,15.252h80.429s15.252,0,15.252-15.252V325.522S444.99,310.31,429.737,310.31Z" transform="translate(641.388 371.948)"/>
    <path id="Path_114" data-name="Path 114" d="M436.37,310.31H388.752s-15.212,0-15.212,15.212V437.4s0,15.252,15.212,15.252H436.37s15.171,0,15.171-15.252V325.522S451.542,310.31,436.37,310.31Z" transform="translate(738.118 371.948)"/>
    <path id="Path_115" data-name="Path 115" d="M367.781,310.31H320.2s-15.212,0-15.212,15.212V437.4s0,15.252,15.212,15.252h47.577s15.212,0,15.212-15.252V325.522C383.006,325.522,383.006,310.31,367.781,310.31Z" transform="translate(570.016 371.948)"/>
    <path id="Path_116" data-name="Path 116" d="M475.981,350.05a7.638,7.638,0,0,0-7.66,7.66l.013,48.212a7.68,7.68,0,1,0,15.36,0V357.71A7.718,7.718,0,0,0,475.981,350.05Z" transform="translate(970.552 469.403)"/>
    <path id="Path_117" data-name="Path 117" d="M485.4,350.05a7.638,7.638,0,0,0-7.66,7.66v48.212a7.66,7.66,0,1,0,15.32,0V357.71A7.663,7.663,0,0,0,485.4,350.05Z" transform="translate(993.652 469.403)"/>
    <path id="Path_118" data-name="Path 118" d="M494.86,350.05a7.672,7.672,0,0,0-7.7,7.66v48.212a7.68,7.68,0,1,0,15.36,0V357.71A7.7,7.7,0,0,0,494.86,350.05Z" transform="translate(1016.749 469.403)"/>
    <path id="Path_119" data-name="Path 119" d="M535.041,350.05a7.638,7.638,0,0,0-7.66,7.66l.013,48.212a7.68,7.68,0,1,0,15.361,0V357.71a7.719,7.719,0,0,0-7.714-7.66Z" transform="translate(1115.386 469.403)"/>
    <path id="Path_120" data-name="Path 120" d="M544.461,350.05a7.663,7.663,0,0,0-7.66,7.66v48.212a7.68,7.68,0,1,0,15.361,0V357.71A7.716,7.716,0,0,0,544.461,350.05Z" transform="translate(1138.487 469.403)"/>
    <path id="Path_121" data-name="Path 121" d="M553.891,350.05a7.638,7.638,0,0,0-7.66,7.66v48.212a7.66,7.66,0,1,0,15.32,0V357.71A7.69,7.69,0,0,0,553.891,350.05Z" transform="translate(1161.613 469.403)"/>
    <path id="Path_122" data-name="Path 122" d="M594.111,350.05a7.638,7.638,0,0,0-7.66,7.66v48.212a7.68,7.68,0,1,0,15.361,0V357.71A7.7,7.7,0,0,0,594.111,350.05Z" transform="translate(1260.246 469.403)"/>
    <path id="Path_123" data-name="Path 123" d="M603.57,350.05a7.672,7.672,0,0,0-7.7,7.66v48.212a7.68,7.68,0,1,0,15.361,0V357.71A7.7,7.7,0,0,0,603.57,350.05Z" transform="translate(1283.343 469.403)"/>
    <path id="Path_124" data-name="Path 124" d="M612.951,413.628a7.7,7.7,0,0,0,7.66-7.7V357.716a7.66,7.66,0,1,0-15.32,0v48.2a7.683,7.683,0,0,0,7.66,7.714Z" transform="translate(1306.448 469.417)"/>
    <path id="Path_125" data-name="Path 125" d="M592.44,324.576V387.4s0,15.252,15.212,15.252h8.564s15.212,0,15.212-15.252V324.576s0-15.212-15.212-15.212h-8.564S592.44,309.364,592.44,324.576Z" transform="translate(1274.932 369.627)"/>
    <path id="Path_126" data-name="Path 126" d="M235.58,350.05a7.672,7.672,0,0,0-7.7,7.66v48.212a7.68,7.68,0,1,0,15.36,0V357.71A7.681,7.681,0,0,0,235.58,350.05Z" transform="translate(380.908 469.403)"/>
    <path id="Path_127" data-name="Path 127" d="M226.111,350.05a7.638,7.638,0,0,0-7.66,7.66l.014,48.212a7.66,7.66,0,1,0,15.32,0V357.71A7.675,7.675,0,0,0,226.111,350.05Z" transform="translate(357.787 469.403)"/>
    <path id="Path_128" data-name="Path 128" d="M216.691,350.05a7.638,7.638,0,0,0-7.66,7.66v48.212a7.66,7.66,0,1,0,15.32,0V357.71A7.7,7.7,0,0,0,216.691,350.05Z" transform="translate(334.686 469.403)"/>
    <path id="Path_129" data-name="Path 129" d="M176.471,350.05a7.663,7.663,0,0,0-7.66,7.66v48.212a7.68,7.68,0,1,0,15.36,0V357.71A7.716,7.716,0,0,0,176.471,350.05Z" transform="translate(236.053 469.403)"/>
    <path id="Path_130" data-name="Path 130" d="M167.08,350.05a7.672,7.672,0,0,0-7.7,7.66l.013,48.212a7.68,7.68,0,1,0,15.36,0V357.71A7.684,7.684,0,0,0,167.08,350.05Z" transform="translate(212.923 469.403)"/>
    <path id="Path_131" data-name="Path 131" d="M157.67,350.05a7.672,7.672,0,0,0-7.7,7.66l.014,48.212a7.68,7.68,0,1,0,15.36,0V357.71A7.7,7.7,0,0,0,157.67,350.05Z" transform="translate(189.847 469.403)"/>
    <path id="Path_132" data-name="Path 132" d="M117.4,350.05a7.638,7.638,0,0,0-7.66,7.66l.014,48.212a7.66,7.66,0,1,0,15.32,0V357.71A7.675,7.675,0,0,0,117.4,350.05Z" transform="translate(91.193 469.403)"/>
    <path id="Path_133" data-name="Path 133" d="M108.02,350.05a7.672,7.672,0,0,0-7.7,7.66l.013,48.212a7.68,7.68,0,1,0,15.36,0V357.71a7.684,7.684,0,0,0-7.674-7.66Z" transform="translate(68.088 469.403)"/>
    <path id="Path_134" data-name="Path 134" d="M98.6,350.05a7.672,7.672,0,0,0-7.7,7.66l.013,48.212a7.68,7.68,0,1,0,15.361,0V357.71a7.692,7.692,0,0,0-7.674-7.66Z" transform="translate(44.995 469.403)"/>
    <path id="Path_135" data-name="Path 135" d="M120.707,309.37h-8.523c-15.293,0-15.293,15.212-15.293,15.212v62.829c0,15.252,15.293,15.252,15.293,15.252h8.523c15.212,0,15.212-15.252,15.212-15.252V324.582C135.919,309.37,120.707,309.37,120.707,309.37Z" transform="translate(59.682 369.642)"/>
    <path id="Path_136" data-name="Path 136" d="M323.49,387.406V324.576c0-15.212-15.252-15.212-15.252-15.212H291.879c-15.212,0-15.212,15.212-15.212,15.212v62.829c0,15.252,15.212,15.252,15.212,15.252h16.358C323.49,402.658,323.49,387.406,323.49,387.406Z" transform="translate(500.553 369.63)"/>
    <path id="Path_137" data-name="Path 137" d="M441.655,309.37H425.3c-15.212,0-15.212,15.212-15.212,15.212v62.829c0,15.252,15.212,15.252,15.212,15.252h16.358c15.252,0,15.252-15.252,15.252-15.252V324.582C456.908,309.37,441.655,309.37,441.655,309.37Z" transform="translate(827.738 369.642)"/>
    <path id="Path_138" data-name="Path 138" d="M193.52,242.78a7.571,7.571,0,0,0-7.7,7.66,7.68,7.68,0,0,0,15.36,0A7.57,7.57,0,0,0,193.52,242.78Z" transform="translate(277.763 206.342)"/>
    <path id="Path_139" data-name="Path 139" d="M184.581,242.78a7.562,7.562,0,0,0-7.66,7.66,7.68,7.68,0,0,0,15.36,0A7.58,7.58,0,0,0,184.581,242.78Z" transform="translate(255.941 206.342)"/>
    <path id="Path_140" data-name="Path 140" d="M202.381,242.78a7.562,7.562,0,0,0-7.66,7.66,7.66,7.66,0,1,0,15.32,0A7.554,7.554,0,0,0,202.381,242.78Z" transform="translate(299.593 206.342)"/>
    <path id="Path_141" data-name="Path 141" d="M525.64,242.78a7.571,7.571,0,0,0-7.7,7.66,7.7,7.7,0,0,0,7.7,7.66,7.825,7.825,0,0,0,7.66-7.66A7.68,7.68,0,0,0,525.64,242.78Z" transform="translate(1092.232 206.342)"/>
    <path id="Path_142" data-name="Path 142" d="M516.74,242.78a7.571,7.571,0,0,0-7.7,7.66,7.7,7.7,0,0,0,7.7,7.66,7.825,7.825,0,0,0,7.66-7.66,7.672,7.672,0,0,0-7.66-7.66Z" transform="translate(1070.406 206.342)"/>
    <path id="Path_143" data-name="Path 143" d="M534.5,258.1a7.832,7.832,0,0,0,7.7-7.66,7.7,7.7,0,0,0-7.7-7.66,7.562,7.562,0,0,0-7.66,7.66A7.68,7.68,0,0,0,534.5,258.1Z" transform="translate(1114.062 206.347)"/>
  </g>
</svg>
